<svg xmlns:dc="http://purl.org/dc/elements/1.1/" xmlns:cc="http://creativecommons.org/ns#" xmlns:rdf="http://www.w3.org/1999/02/22-rdf-syntax-ns#" xmlns:svg="http://www.w3.org/2000/svg" xmlns="http://www.w3.org/2000/svg" viewBox="0 0 704 704" fill="none"><metadata><rdf:RDF><cc:Work><dc:format>image/svg+xml</dc:format><dc:type rdf:resource="http://purl.org/dc/dcmitype/StillImage"/><dc:title>Open Peeps</dc:title><dc:creator><cc:Agent><dc:title>Pablo Stanley</dc:title></cc:Agent></dc:creator><dc:source>https://www.openpeeps.com/</dc:source><cc:license rdf:resource="https://creativecommons.org/publicdomain/zero/1.0/"/></cc:Work><cc:License rdf:about="https://creativecommons.org/publicdomain/zero/1.0/"><cc:permits rdf:resource="https://creativecommons.org/ns#Reproduction"/><cc:permits rdf:resource="https://creativecommons.org/ns#Distribution"/><cc:permits rdf:resource="https://creativecommons.org/ns#DerivativeWorks"/></cc:License></rdf:RDF></metadata><mask id="avatarsRadiusMask"><rect width="704" height="704" rx="0" ry="0" x="0" y="0" fill="#fff"/></mask><g mask="url(#avatarsRadiusMask)"><rect fill="#354a53" width="704" height="704" x="0" y="0"/><g fill-rule="evenodd" clip-rule="evenodd"><path d="M705.281 1074.02a2351.117 2351.117 0 0 1-11.084-68.46c-1.594-10.86-3.149-21.73-4.547-32.618-.979-7.628-2.47-16.351 2.72-22 7.303-7.952 13.937-14.758 14.831-26.149.841-10.717-2.783-22.4-5.049-32.803-4.752-21.816-10.668-43.362-17.205-64.704-6.641-21.683-13.923-43.162-21.31-64.6-6.906-20.044-13.545-40.269-22.54-59.5-17.071-36.495-45.951-63.522-81.643-81.568-8.877-4.488-26.983-20.51-36.257-24.097-8.526-3.298-8.495 6.333-16.886 2.705-6.708-2.9-12.954-6.767-16.71-13.244-4.078-7.033-14.305-16.869-15.862-25.055-3.299-17.351.275-32.12-12.109-45.179-10.994-11.597-25.771-19.542-41.061-23.807-33.636-9.381-78.494-2.822-98.788 28.433-9.693 14.926-13.08 32.968-26.159 45.149-11.421 10.636-8.865 17.908-23.657 23.39-.838.311-23.546-4.56-24.384-4.248-16.182-3.463-31.648 6.23-46.494 11.856-22.133 8.384-43.205 19.298-63.002 32.269-39.92 26.155-74.11 60.118-102.296 98.551-28.42 38.75-50.471 82.182-66.172 127.576a492.842 492.842 0 0 0-10.26 33.455c-1.69 6.307-3.497 12.849-1.438 19.305 1.684 5.283 5.43 9.216 9.829 12.385 5.963 4.297 17.924 7.09 17.69 15.732-.177 6.57-2.406 13.485-3.494 19.978-1.295 7.732-2.36 15.51-3.423 23.276-4.84 35.352-8.607 70.902-10.273 106.552-1.64 35.1-3.001 70.92-.566 106.01.16 2.31.85 4.44 1.964 6.23-1.04.4-1.12 2.34.174 2.61.906.19 1.81.39 2.716.58 1.882 1.42 4.229 2.29 6.93 2.38 1.83.06 3.66.14 5.49.23 19.3 4.04 38.599 7.85 58.152 10.74 23.768 3.5 47.606 6.36 71.518 8.69 49.135 4.78 97.883 3.19 147.083.62 49.124-2.58 98.219-3.18 147.394-1.9 49.218 1.28 98.418 3.42 147.647 4.3 54.999.98 109.914-.52 164.754-4.9 7.519-.59 12.171-6.58 10.688-14.04-8.885-44.75-18.954-89.19-26.911-134.13Z" fill="rgba(255, 219, 180, 1)"/><path d="m201.087 597.521 1.074-.414c14.518-5.671 29.628-14.822 45.421-11.442.558-.208 10.834 1.887 17.872 3.215l-6.68 6.973-11.79 2.268c40.673 67.128 88.778 100.692 144.314 100.692 55.537 0 97.678-33.564 126.425-100.692l3.923-1.085c.484.112 1 .271 1.552.485 9.274 3.587 27.379 19.608 36.256 24.096 35.692 18.047 64.572 45.073 81.643 81.569 8.695 18.59 15.189 38.108 21.85 57.494l.69 2.005c7.387 21.438 14.669 42.918 21.31 64.601 6.253 20.414 11.938 41.015 16.579 61.86l.626 2.844c2.266 10.403 5.89 22.085 5.049 32.803-.318 4.058-1.365 7.534-2.912 10.687l-80.446 28.947 38.326 261.393c-35.107 1.51-70.246 1.9-105.419 1.27-49.229-.88-98.429-3.02-147.647-4.3-47.685-1.24-95.294-.71-142.928 1.67l-12.097.62c-46.613 2.33-92.858 3.52-139.452-1.01l-3.175-.31v-38.24l16.367-212.911-82.945-15.613-81.422-39.546c-2.46-2.459-4.434-5.329-5.532-8.773-1.907-5.98-.498-12.033 1.064-17.905l.375-1.4a492.842 492.842 0 0 1 10.26-33.455c15.7-45.394 37.751-88.827 66.171-127.576 28.187-38.433 62.377-72.396 102.296-98.552 19.797-12.97 40.869-23.884 63.002-32.268Z" fill="rgba(120, 225, 133, 1)"/><path d="M232.235 584.564c5.086-.221 10.272.602 15.346 1.101.442.043.61.725.112.829-9.08 1.897-18.062 4.492-26.98 7.128l-3.819 1.13c-10.057 2.975-19.819 6.044-29.555 10.012-19.404 7.908-37.833 18.582-54.794 30.845C67.233 682.83 19.963 754.324-9.867 828.345a525.982 525.982 0 0 0-20.525 61.653 554.65 554.65 0 0 0-3.83 15.347c-.354 1.505-1.897 5.359-1.05 6.899.747 1.361 3.655 2.202 5.006 2.91l4.561 2.365c8.897 4.585 23.717 12.123 25.203 12.857l2.318 1.141c37.91 18.585 78.418 34.345 121.079 35.436l.334-3.643c1.902-20.141 4.398-40.389 9.846-59.911.293-1.049 1.628-.695 1.75.237 3.035 23.111 2.065 46.402 1.006 69.62-1.875 41.124-4.365 82.224-6.578 123.324-1.108 20.57-2.54 41.11-3.833 61.67-1.295 20.59-1.714 41.68-4.671 62.1-.659 4.55-5.991 7.03-10.029 6.55-4.468-.53-7.905-4.47-7.926-8.98-.054-11.9 1.441-23.94 2.272-35.8.789-11.28 1.636-22.55 2.504-33.82 3.172-41.13 6.821-82.21 10.196-123.33 1.196-14.58 2.488-29.147 3.818-43.715-45.193-1.457-87.414-18.196-127.692-37.754-.583 13.237-1.99 26.45-3.354 39.632-3.805 36.787-7.16 73.557-9.67 110.457-1.269 18.64-2.192 37.3-2.996 55.96a1708.912 1708.912 0 0 0-1.187 36.7l-.137 7.01c-.113 4.44-.564 8.55-4.3 11.78-3.796 3.29-8.922 3.46-12.678 0-5.028-4.63-4.139-10.93-3.99-17.15a1718.048 1718.048 0 0 1 1.775-47.18c1.886-36.64 5.655-73.13 10.58-109.47l1.922-14.03c3.59-26.08 7.532-52.754 15.558-77.877a1428.758 1428.758 0 0 1-9.345-4.691c-5.506-2.788-11.199-5.404-16.55-8.481-4.247-2.441-7.909-5.789-9.09-10.73-1.319-5.505.697-11.526 2.036-16.896l.116-.472a502.049 502.049 0 0 1 4.22-16.153c6.05-21.739 13.53-43.054 22.285-63.849 17.53-41.632 40.157-81.183 67.796-116.944 24.88-32.19 54.269-61.382 88.715-83.276 16.84-10.704 34.786-19.493 53.765-25.707 8.871-2.904 18.523-5.43 27.811-6.47 5.01-.56 10.027-.881 15.061-1.1Zm90.114-65.97c6.044-6.49 18.052.226 15.15 8.82-6.826 20.219-17.696 38.662-34.66 51.948-15.946 12.49-34.961 20.601-55.439 18.87a1.217 1.217 0 0 1-.416-.111l1.765 2.394c13.854 18.741 28.47 37.223 46.087 52.541 35.893 31.211 84.763 48.045 131.953 36.07 37.128-9.421 69.838-38.78 79.458-76.196-1.379.618-3.018.829-4.817.438-7.697-1.671-15.317-9.766-20.281-15.57-5.37-6.279-9.564-13.059-12.638-20.723-5.626-14.026-7.43-32.085.252-45.672.948-1.675 3.134-.736 3.32.899l.292 2.552c1.481 12.734 3.326 25.051 9.33 36.659 2.938 5.68 6.46 11.224 10.747 15.981 2.294 2.545 4.781 4.977 7.466 7.111 2.616 2.079 5.783 3.583 8.128 5.968l.43.458.012-.082c.593-5.041 4.128-7.262 7.587-7.123 3.347.135 7.279 1.608 8.802 2.314l.144.068c23.352 11.21 44.859 25.821 65.099 42.031 41.856 33.524 73.217 77.349 88.412 128.957 7.458 25.329 11.737 51.428 16.254 77.405l2.782 15.917c4.216 23.981 8.926 48.435 18.444 70.743 2.462 5.771.564 11.183-5.473 13.452-7.538 2.834-15.104 5.578-22.682 8.288 3.721 15.963 5.99 32.479 8.778 48.519 5.926 34.1 13.187 67.98 19.413 102.04 3.183 17.41 6.055 34.88 9.235 52.29 1.531 8.39 3.129 16.76 4.683 25.14.837 4.52 1.596 9.06 2.395 13.58l.139.76c.458 2.38 1.033 4.85.376 7.24-.749 2.73-2.876 4.65-4.775 6.61-1.563 1.61-3.822 1.62-5.737.74l-.63-.29c-3.42-1.6-6.1-3.2-7.313-7.06-.768-2.44-1.045-5.19-1.547-7.71-.963-4.82-1.876-9.66-2.738-14.5a3535.65 3535.65 0 0 1-5.052-29.1l-1.536-9.09c-5.27-31.33-10.275-62.85-12.805-94.51-1.123-14.05-2.312-28.08-3.513-42.12l-.901-10.524c-1.14-13.325-2.533-26.987-2.73-40.492l-4.532 1.609-22.11 7.816c-5.482 1.937-12.462 5.907-18.362 5.185-2.888-.354-5.09-1.263-6.79-2.915 2.036 28.733 4.792 57.421 8.465 85.951 3.342 25.97 7.047 51.9 11.423 77.71 2.167 12.78 4.394 25.55 6.813 38.29 1.209 6.37 2.457 12.73 3.743 19.08.641 3.17 1.404 6.35 1.904 9.54.572 3.66-.436 5.91-2.481 8.93-1.679 2.47-5.038 3.74-7.761 2.03-3.606-2.26-5.487-4.22-6.548-8.34-.964-3.75-1.55-7.65-2.296-11.44-1.377-7-2.708-14.01-3.993-21.02-2.687-14.68-5.164-29.38-7.376-44.14-7.795-51.97-12.741-104.37-15.239-156.859-1.233-25.897-1.614-51.817-1.395-77.741.112-13.288.546-26.614 1.486-39.869.952-13.417 2.932-26.566 4.7-39.854.062-.468.722-.495.75 0 .837 14.898 2.149 29.779 2.792 44.716.614 14.253.883 28.528 1.371 42.786.641 18.742 1.53 37.495 2.707 56.235 2.131-2.331 5.343-3.675 8.557-3.15 4.656-.977 9.668-3.42 14.107-4.903l16.734-5.59c8.797-2.938 17.594-5.856 26.422-8.686-7.893-26.553-13.3-53.502-17.917-80.844l-2.059-12.297c-4.075-24.204-8.47-48.419-15.852-71.858-7.761-24.642-19.375-47.552-34.782-68.299-15.187-20.447-33.664-38.451-52.688-55.291-16.287-14.416-33.71-27.432-50.322-41.452.174.929.211 1.952.058 3.076-3.532 25.85-17.017 49.923-35.81 67.828-37.755 35.971-93.642 43.434-141.964 26.566-46.743-16.316-88.07-54.958-102.671-102.775-.25-.818.846-1.143 1.286-.542.81 1.11 1.624 2.22 2.439 3.33-.055-.441.174-.921.718-1.131 17.036-6.578 33.765-15.907 46.535-29.104 6.224-6.433 11.656-13.721 15.944-21.581 2.054-3.765 3.899-7.664 5.371-11.693l.374-1.042c1.784-5.047 3.275-10.193 6.999-14.192Z" fill="#000"/></g><g transform="matrix(.99789 0 0 1 156 62)"><g fill-rule="evenodd" clip-rule="evenodd"><path d="M244.801 58.706c44.772 0 98.49 21.705 103.057 22.139l.123.006c2.403 0 11.792 7.153 28.168 21.46l-17.737 34.594 1.436 1.371c6.868 6.585 12.732 12.587 17.36 17.319 37.792 38.634 44.584 190.324 35.678 243.223-8.906 52.899-25.402 104.662-102.201 104.662-76.798 0-162.238-46.177-175.4-60.558-8.774-9.586-18.63-14.179-29.567-13.778a409.05 409.05 0 0 1-1.338-1.697l-1.609-.228c-15.137-2.192-25.983-5.143-32.538-8.851-12.803-7.244-26.876-45.323-26.876-53.711 0-8.305-21.012-68.717-21.433-75.11l-.006-.177c0-5.345-27.451-29.912-27.451-37.714 0-7.803-5.533-7.329 0-34.823l1.608-8.077c5.888-29.272 17.413-77.744 61.355-98.806C105.718 86.805 199.578 58.706 244.8 58.706Z" fill="rgba(255, 219, 180, 1)"/><path d="M117.67 298.313s-20.168 9.551-40.336 25.143c-20.168 15.591-10.21 16.106-10.21 16.106s-.868 33.413 5.347 46.667c6.215 13.254 43.024 15.6 43.024 15.6l6.235 20.877-.862 9.675c-4.798-2.157-9.851-3.138-15.158-2.943-.45-.568-.895-1.133-1.338-1.697l-1.609-.228c-15.137-2.192-25.983-5.143-32.538-8.851-12.803-7.244-26.875-45.323-26.875-53.711 0-4.665-6.63-25.772-12.517-44.511-4.593-14.62-8.732-27.797-8.916-30.599l-.007-.177c0-2.421-5.63-8.783-11.79-15.745-7.443-8.412-15.66-17.7-15.66-21.969 0-2.277-.472-3.849-1.002-5.617-1.286-4.291-2.917-9.735 1.001-29.206l1.608-8.077c5.888-29.272 17.413-77.744 61.355-98.806C105.71 87.099 199.57 59 244.794 59c35.267 0 76.085 13.468 94.058 19.398 4.844 1.598 8.028 2.648 8.998 2.74l.123.007c2.403 0 11.792 7.154 28.168 21.46l-4.16 8.115c-54.082 1.579-143.017 6.404-181.838 21.137-57.724 21.907-72.473 166.456-72.473 166.456Z" fill="rgba(120, 225, 133, 1)"/><path d="M49.976 108.863c24.083-25.562 160.804-65.1 229.976-56.719l2.075.269c5.52.7 10.96 1.76 16.329 3.2 17.354 4.053 35.28 10.19 49.619 20.441 11.971 8.386 49.734 22.081 38.604 44.019 4.127 7.819 5.667 17.479 2.878 25.18-.351 2.66-1.171 5.11-2.22 7.65 8.817 13.011 15.798 27.725 21.449 41.72 9.875 35.221 16.02 71.875 16.92 107.81 2.994 68.272-4.492 149.823-63.954 193.971-35.921 27.975-92.189 28.915-132.556-5.771-2.291-2.711-13.064-10.027-9.469-11.31 1.07 1.13 2.17 2.23 3.29 3.31a.649.649 0 0 1-.04-.37l-1.054-.954c-1.983-1.835-4.553-4.497-1.626-3.976.129.15.27.28.409.43.62.372 1.088.694 1.453.978l.187.151-.058-.061c-1.686-1.798-2.697-3.631-.176-2.46l.334.162a92.365 92.365 0 0 0 3.42 3.41c-.019-.13 0-.26.071-.4l-1.082-1.045c-1.055-1.034-.894-1.039-.378-1.875-2.244-3.145 1.945-1.277 2.239-.05 2.621-.62 4.922 4.3 6.61 4.9 73.999 56.89 181.386 6.411 179.647-152.114l-.027-3.102c-.508-50.689-4.774-102.788-25.74-148.674-2.039-4.42-4.32-8.72-6.829-12.88-1.73-3.12-3.58-6.16-5.57-9.12a82.529 82.529 0 0 1-16.49-3.05 78.855 78.855 0 0 1-5.54-1.6c-26.88 1.466-53.161 3.061-80.116 4.573l-8.42.524c-22.834 1.468-46.449 3.82-64.875 17.943-18.08 12.858-18.162 38.213-33.639 52.33-22.07 14.979-22.231 28.486-26.481 50.56.315 16.64 11.853 40.817-9.32 47.82 3.572 5.093-1.407 2.646-1.799.86-.04.01-.08.02-.11.02 3.183 5.917-1.496 2.191-1.91.29-.25-.07-.5-.25-.75-.5 3.207 5.184-1.977 1.554-1.67.61-6.197-9.525-18.951-11.004-27.941-8.48-.11.34-.51.37-.76.19-38.226 8.284-28.363 87.42 10.811 79.77 1.677-.342 1.637.463 1.97.54-.905-2.376 1.646-1.409 1.619-.91l.155-.008c.123-.01.073-.024.165.008-.875-4.859 4.049 2.181 3.66 2.47.151-.09.321-.14.471-.16l-.17-.461c-.817-2.177-.747-1.272-.741-2.519-.614-1.541-.659-.867-.515-1.871 2.158-1.672 2.795 3.4 3.515 3.771-1.234-1.72-.253-3.125.911-2.191 8.823 18.558 20.22 35.995 34.949 49.731 1.611 1.27 3.241 2.52 4.93 3.7 6.265 5.457 15.875 8.966 21.74 13.8 0 .08-.039.18-.099.28l.134.121.136.129 2.04.98c.6.51 1.14 1.08 1.619 1.71.511.59.96 1.24 1.341 1.93.19.84-.23 1.19-1.03.83-.351-.12-.7-.26-1.05-.39.02.03.029.05.05.07.115.174.891 1.974-.004 1.681l-.106-.041c-.491-.18-.98-.38-1.46-.57.57.71 1.089 1.48 1.549 2.13.491.51.79 1.11.911 1.79-.021.38-.23.54-.61.49-.58-.19-1.15-.39-1.721-.6l.162.31c.404.793.977 2.124-.041 1.68-.871-.27-1.71-.58-2.55-.92-.071.14-.21.19-.49.06-2.67-.95-5.25-2.11-7.72-3.48-2.17-1.58-4.361-3.13-6.54-4.7a50.211 50.211 0 0 1-5.92-4.14c-12.646-8.168-23.717-18.544-32.5-30.1-14.689 12.721-44.058.568-62.225-9.39-16.07-8.9-22.385-25.356-24.018-43.098-3.395-23.886-22.915-32.062-21.557-84.472-.03.01-.061.01-.101.01-.71-.21-1.4-.49-2.05-.85-.67-.32-1.3-.7-1.89-1.16l-.73-1.01a6.2 6.2 0 0 1-.98-.65l-.134.174c-.427.515-.14-.26-.115-.414l-1.268-1.725c-3.007-4.105-6.306-8.711-8.993-12.395l-.085.15c-.06.113-.093.194-.064.23-6.395-9.188-12.41-20.286-14.08-31.03-1.973-8.276-1.202-16.804.519-24.47 7.379-26.845 31.55-87.593 63.29-113.63Zm173.548 371.253-.401-.357.352.442c.185.228.374.433.682.642a.554.554 0 0 1-.011-.22 13.233 13.233 0 0 1-.622-.507Zm56.122-414.483c-46.908-4.033-93.045 6.301-137.807 18.81l-3.088.888c-25.452 7.262-52.365 13.797-73.874 29.342-30.051 23.017-45.57 59.633-59.111 93.44-11.825 25.118-5.78 53.441 12.04 70.98 1.854-17.429 5.015-34.348 9.955-51.131 1.03-2.622.25-3.481 2.473-3.823 3.356 45.228-13.173 78.644 19.537 132.246 14.193 25.292-2.237 43.798 37.843 57.107l1.084.414c8.35 3.151 17.469 5.638 25.648 3.877l-.733-1.192c-.747-1.227-.974-1.823.113-2.348-.029-.06-.069-.12-.11-.19-.879-1.66-1.729-3.34-2.54-5.04-.329.11-.659.19-1 .28.221.41.25.82-.369.96a17.427 17.427 0 0 1-6.783.917l-.497-.037c-2.617-.16-4.266-.637-5.741-1.08-.49-.08-.98-.16-1.46-.26-4.745-1.052-9.768-3.728-13.02-6.38-37.057-21.048-33.227-92.697 12.45-99.47.938-45.112 22.395-121.22 58.005-164.207 32.188-39.541 120.062-56.679 181.198-50.636.891.295 1.782.593 2.673.894 9.432.838 18.421 5.04 27.86 6.992-6.777-5.079-14.465-8.462-22.384-11.337-15.778-9.651-33.866-14.873-51.341-18.556-3.62-.89-7.29-1.38-11.021-1.46Zm-187.08 274.55c2.456-1.334 2.175-.046 2.74-.42 17.666-1.441 36.715 14.026 46.59 26.92-.78.81-2.89-1.59-3.26-1.97-.05.05-.11.09-.17.11l.275.388c4.003 5.744-3.932-1.015-4.675-2.408a.59.59 0 0 1-.41.08c.629.617 2.55 2.226 2.88 3.37l.509.424c4.803 4.112 4.404 7.206-1.048 1.366.129.27.179.52.089.72l.188.125c2.681 1.874 4.886 7.096-.718 1.735.583 3.916-5.553-3.653-5.75-3.6-10.618-8.335-26.251-16.441-39.57-17.53l-.458-.053c-2.444-.314-3.6-1.039-2.742-2.637-3.01-.716-2.305-2.198-.88-2.15-2.123-1.396-.212-2.731 1.02-2.21-.847-2.345 2.55-.783 2.86-1.11 1.763-2.719 2.238-.451 2.53-1.15Zm-37.03-145.35c8.485-3.108 33.548 6.196 31.543 18.518-1.194 2.829-5.128 4.45-7.893 2.853l-3.609-2.424c-6.28-4.206-11.944-7.894-18.687-11.562-3.67-1.821-5.25-5.687-1.354-7.385Zm48.275-18.311-3.277-2.133c-17.684-11.573-42.683-29.11 1.652-10.966 5.053 2.167 11.767 3.449 14.524 8.261 4.331 8.869-7.067 9.465-12.899 4.838Zm1.987-51.929c-1.419-5.385 16.238.934 21.378 2.6l.783.295c5 1.863 10.732 3.592 13.722 7.907 3.504 5.962-3.588 7.197-7.981 4.504-9.007-5.886-18.882-10.327-27.902-15.306Zm44.901-25.085c-9.939-10.854 16.66-.456 20.644 2.43l.114.085c2.973 2.093 2.37 6.601-.423 7.925-7.947.151-13.795-6.473-20.335-10.44Zm45.226-11.891c-15.8-11.355 5.013-5.954 12.242-1.504 4.927 4.345-.148 11.68-12.242 1.504Z" fill="#000"/></g></g><g transform="translate(315 248)"><g fill-rule="evenodd" clip-rule="evenodd"><path d="M79.2 197.799c10.921-6.577 51.744-1.756 83.813 0 25.465 1.394 43.654-1.369 49.475 2.549 13.153 8.852 6.764 51.658-15.899 57.512-22.664 5.854-106.677 14.03-121.162 0s-15.823-48.262 3.772-60.061Z" fill="#fff"/><path d="M93.347 186.477c17.142-2.081 33.758 3.167 50.516 5.813 8.848 1.395 17.707 2.438 26.66 2.825 1.801.079 3.604.125 5.406.162.167-1.587 1.055-3.043 2.979-3.916 3.944-1.788 7.1-2.594 11.43-2.421 3.963.156 7.94.564 11.843 1.278 7.087 1.299 14.205 4.248 19.389 9.37 11.997 11.853 10.171 30.892.901 43.803-19.152 26.677-54.107 27.915-84.045 27.567l-2.763-.036c-27.259-.389-66.259 3.675-78.643-27.339-4.554-11.405-3.922-24.624 1.654-35.562 6.65-13.047 20.65-19.843 34.673-21.544Zm85.148 44.418-.244.01a1809.92 1809.92 0 0 1-37.709 1.047c.376 3.229.76 6.46 1.199 9.682.345 2.536.714 5.069 1.098 7.599.163 1.071.759 2.734.591 3.795l-.061.419a3.836 3.836 0 0 1 1.667 1.445c.152.236.262.475.371.712 9.763.076 20.27-.113 30.222-1.888l.02-.216c.181-1.271.71-2.127 1.412-2.714.7-4.054.636-8.375.906-12.397.169-2.499.351-4.996.528-7.494Zm-47.557 1.229c-9.059.154-18.122.272-27.179.162l-4.111-.064c.868 4.658 1.813 9.301 2.598 13.99.82 4.887-3.482 7.994-7.205 7.868.418.069.835.14 1.253.198 11.632 1.645 23.71 1.209 35.515 1.196-.635-3.707-.378-7.889-.473-10.983l-.018-.479a433.376 433.376 0 0 1-.38-11.888Zm-61.532-.855c.314 2.422.926 4.792 1.841 6.999 3.867 9.325 12.732 13.676 22.112 15.508-1.628-.562-2.92-1.912-3.246-4.224-.814-5.751-1.106-11.597-1.128-17.435-6.537-.061-13.118-.201-19.579-.848Zm143.179-1.991c-4.654 1.098-10.063.595-14.629.802-4.278.194-8.557.364-12.835.537.201 2.92.398 5.84.612 8.758.275 3.773.301 7.759 1.023 11.516 8.61-2.939 16.324-7.651 22.112-15.185a29.223 29.223 0 0 0 3.717-6.428ZM91.38 201.775c-7.748 1.835-15.08 5.71-19.02 12.799-2.34 4.207-3.368 9.193-3.17 14.106 6.547-.762 13.208-1.051 19.837-1.29.022-1.194.05-2.386.086-3.576l.102-3.05c.18-5.816.271-13.12 2.165-18.989Zm40.099.71-3.41-.383c-9.473-1.08-18.941-2.213-28.414-1.563a54.607 54.607 0 0 0-4.158.448c1.674 6.042 1.534 13.139 2.233 19.12.27 2.313.612 4.606.99 6.891l1.643-.077c10.166-.551 20.341-.889 30.514-1.293-.001-1.91.009-3.821.04-5.733l.038-1.912c.115-4.884-.2-10.385.524-15.498Zm47.57-.776c-9.922 1.602-20.176 1.942-29.922 1.954-3.892.005-7.783-.234-11.671-.579.253 2.071.385 4.165.575 6.207.384 4.126.823 8.245 1.3 12.361l.426 3.601a6905.812 6905.812 0 0 0 37.508-1.814l1.764-.095.494-6.921c.337-4.615.707-9.229 1.23-13.823l-.392-.141a6.476 6.476 0 0 1-1.312-.75Zm4.309 1.718c.546 6.526.849 13.078 1.251 19.614l8.241-.44c1.374-.075 2.747-.151 4.12-.23 5.341-.308 12.203-1.925 17.483-.417.403-4.799-.969-9.475-5.301-12.7-7.605-5.663-17.288-3.647-25.794-5.827Zm-28.157-58.333c12.272-7.028 43.063-14.211 45.013 7.874.897 10.163-6.659 18.583-15.482 22.341l-.331.139c-8.275 3.402-22.942 7.244-30.103-.133-5.96-6.14 1.945-17.149 9.351-12.119 3.806 2.584 11.817.68 16.064-.55l.266-.077c4.583-1.347 10.693-5.658 8.798-11.301-1.677-4.992-8.813-5.904-13.282-6.066-6.671-.239-13.163 1.31-19.773 1.814-1.047.08-1.37-1.436-.521-1.922Zm50.835-35.513c16.656-.78 27.017 17.406 23.187 32.307-.662 2.571-3.538 5.095-6.314 4.806l-.7-.064a6.219 6.219 0 0 1-1.04-.17c-2.636-.73-4.999-3.472-4.807-6.314l.051-.828c.388-7.039-.375-15.149-8.74-16.854-7.095-1.446-11.056 5.383-11.14 11.669-.016 1.116-1.27 1.895-2.257 1.295-5.129-3.121-6.017-9.33-4.058-14.677 2.483-6.775 8.697-10.837 15.818-11.17Zm-123.603 3.9c12.12-4.044 25.198 2.417 31.067 13.133 2.059.596 4.115 2.183 3.829 4.613-.413 3.496-1.035 5.7-3.459 8.351-3.792 4.148-10.893 2.027-12.468-3.078l-.067-.231c-1.79-6.599-9.054-10.953-15.671-8.643-7.73 2.698-7.506 10.862-12.928 15.618-.637.559-1.401.648-2.165.279-5.76-2.783-4.724-11.159-2.671-15.953 2.693-6.291 7.927-11.886 14.533-14.089ZM65.925 76.674c9.822-10.022 35.434-19.72 42.153-1.213 1.28 3.525-1.445 8.278-5.115 9.01-6.01 1.195-11.342-1.414-17.312-.946-4.833.381-9.874 1.996-13.738 4.99-10.702 8.292-13.056 22.317-20.513 32.871-.363.514-1.068.298-1.135-.308-1.698-15.365 4.902-33.428 15.66-44.404Zm128.095-9.866c6.518-2.302 13.899-2.105 20.451-.063 6.6 2.058 12.659 5.966 17.327 11.072 2.118 2.318 4.078 4.876 5.65 7.6.835 1.442 1.713 4.423 2.662 6.198 5.135 2.965 7.329 9.72 2.733 14.525l-.208.211-.615.61c-2.471 2.446-6.197 3.506-9.57 2.529-7.548-2.184-8.465-8.129-11.078-14.439-1.726-4.168-4.683-7.856-8.268-10.565-8.473-6.4-22.366-8.439-32.567-5.423-.543.161-1.181-.53-.794-1.033 1.933-2.504 3.047-4.559 5.635-6.579 2.627-2.05 5.494-3.53 8.642-4.643Z" fill="#000"/></g></g><g transform="translate(279 400)"/><g transform="translate(179 343)"/><g transform="translate(203 303)"><path fill-rule="evenodd" clip-rule="evenodd" d="M372.311 95.458c-12.141 12.545-32.409 16.145-48.562 9.417-41.476-17.33-21.175-71.38 10.812-85.894 3.996-.996 9.333-3.36 14.2-3.895.44-.216 1.398.409 2.559-.182 35.271 3.938 43.303 58.69 20.991 80.554m-133.778 3.21c-13.617 18.062-38.933 23.634-59.617 15.238-40.862-16.092-26.369-64.021 1.588-82.811 59.057-22.191 83.444 34.273 58.029 67.574m-88.58-40.018c-.038-.018-.076-.027-.115-.045.216-.095.432-.19.647-.287-.07.183-.146.364-.214.547-.106-.073-.199-.158-.318-.215m250.47-19.523c-3.334.007-8.15.555-10.91 2.868-6.806-22.953-31.928-44.196-53.776-28.706-17.205 5.533-29.972 17.804-37.228 34.118-13.083-7.782-33.655-4.46-45 5.832-7.43-24.551-25.716-33.148-47.481-34.417-23.756-3.891-47.434 19.18-54.822 37.688-6.143-.7-15.322-2.654-21.101 1.137-37.507-9.836-103.082-15.26-110.707-9.794-5.434 2.085-8.416 14.91-.826 15.603 6.614-.94-.772-9.398 5.895-10.321 35.523-2.202 70.008 4.952 105.155 7.954 3.138 4.22 13.277 5.633 18.686 3.937-8.519 31.396 9.871 52.756 37.426 59.154 42.667 9.801 79.788-28.367 68.631-68.067 12.925-6.43 27.792-6.154 41.872-2.767-23.528 86.59 115.929 82.705 94.148-8.384 14.495 7.21 17.643-4.38 10.038-5.835" fill="#000"/></g></g></svg>